<svg xmlns="http://www.w3.org/2000/svg" width="172" height="44" viewBox="0 0 172 44" fill="none" role="img" aria-label="EcoPulse">
  <rect width="44" height="44" rx="14" fill="#22A565"/>
  <path d="M23.2 33.3C15.9 29.9 11 24.1 11 17.6C11 13.7 13.7 11 17.6 11C20.5 11 22.8 12.4 24 14.9C25.4 11.9 28.6 9.8 33 9.8C35.2 9.8 37 10.4 37 10.4C36.7 21.7 31.5 29.9 23.2 33.3Z" fill="white"/>
  <path d="M23.6 30.2C23 22 25.3 17.4 31.8 12.5" stroke="#DDF7E9" stroke-width="2.7" stroke-linecap="round"/>
  <path d="M59 29V15H69.1V18H62.5V20.5H68.4V23.3H62.5V26H69.3V29H59ZM77.9 29.3C76.4 29.3 75.1 29 74 28.4C72.9 27.7 72.1 26.9 71.5 25.8C70.9 24.7 70.6 23.4 70.6 22C70.6 20.6 70.9 19.3 71.5 18.2C72.1 17.1 72.9 16.3 74 15.6C75.1 15 76.4 14.7 77.9 14.7C79.7 14.7 81.2 15.2 82.4 16.1C83.6 17.1 84.3 18.4 84.6 20H80.9C80.7 19.3 80.3 18.8 79.8 18.4C79.3 18 78.6 17.8 77.8 17.8C76.7 17.8 75.8 18.2 75.1 18.9C74.5 19.7 74.2 20.7 74.2 22C74.2 23.3 74.5 24.3 75.1 25.1C75.8 25.8 76.7 26.2 77.8 26.2C78.6 26.2 79.3 26 79.8 25.7C80.3 25.3 80.7 24.8 80.9 24.1H84.6C84.3 25.7 83.6 27 82.4 28C81.2 28.9 79.7 29.3 77.9 29.3ZM92.3 29.3C90.9 29.3 89.6 29 88.5 28.4C87.4 27.8 86.5 26.9 85.9 25.8C85.2 24.7 84.9 23.4 84.9 22C84.9 20.6 85.2 19.3 85.9 18.2C86.5 17.1 87.4 16.2 88.5 15.6C89.6 15 90.9 14.7 92.3 14.7C93.8 14.7 95.1 15 96.2 15.6C97.3 16.2 98.2 17.1 98.8 18.2C99.5 19.3 99.8 20.6 99.8 22C99.8 23.4 99.5 24.7 98.8 25.8C98.2 26.9 97.3 27.8 96.2 28.4C95.1 29 93.8 29.3 92.3 29.3ZM92.3 26.2C93.5 26.2 94.4 25.8 95.1 25C95.8 24.2 96.1 23.2 96.1 22C96.1 20.8 95.8 19.8 95.1 19C94.4 18.2 93.5 17.8 92.3 17.8C91.2 17.8 90.3 18.2 89.6 19C88.9 19.8 88.6 20.8 88.6 22C88.6 23.2 88.9 24.2 89.6 25C90.3 25.8 91.2 26.2 92.3 26.2ZM102.2 29V15H107.9C109 15 109.9 15.2 110.7 15.6C111.5 16 112.1 16.5 112.5 17.2C112.9 17.9 113.1 18.7 113.1 19.6C113.1 20.5 112.9 21.3 112.5 22C112.1 22.7 111.5 23.2 110.7 23.6C109.9 24 109 24.2 107.9 24.2H105.7V29H102.2ZM105.7 21.4H107.6C108.2 21.4 108.7 21.2 109 20.9C109.4 20.6 109.5 20.1 109.5 19.6C109.5 19 109.4 18.6 109 18.3C108.7 18 108.2 17.8 107.6 17.8H105.7V21.4ZM115.2 29V14.6H118.7V29H115.2ZM125.4 29.3C124.1 29.3 123.1 28.9 122.3 28.1C121.5 27.3 121.1 26.2 121.1 24.8V19H124.6V24.4C124.6 25.1 124.8 25.6 125.1 26C125.4 26.4 125.9 26.6 126.5 26.6C127.1 26.6 127.6 26.4 128 25.9C128.4 25.5 128.6 24.9 128.6 24.1V19H132.1V29H129L128.8 27.7C128.5 28.2 128 28.6 127.4 28.9C126.8 29.2 126.1 29.3 125.4 29.3ZM138.6 29.3C137.2 29.3 136.1 29 135.2 28.4C134.3 27.8 133.8 27 133.7 25.9H137C137.1 26.3 137.3 26.6 137.6 26.8C137.9 27 138.3 27.1 138.8 27.1C139.2 27.1 139.6 27 139.8 26.9C140.1 26.7 140.2 26.5 140.2 26.2C140.2 25.9 140 25.7 139.7 25.5C139.4 25.4 138.8 25.2 138 25C136.9 24.8 136 24.5 135.4 24C134.7 23.6 134.4 22.9 134.4 21.9C134.4 21 134.8 20.2 135.6 19.6C136.3 19 137.3 18.7 138.5 18.7C139.7 18.7 140.8 19 141.5 19.6C142.3 20.2 142.8 21 142.9 22H139.8C139.7 21.7 139.6 21.4 139.3 21.2C139.1 21 138.8 20.9 138.4 20.9C138 20.9 137.7 21 137.5 21.1C137.3 21.3 137.2 21.5 137.2 21.7C137.2 22 137.4 22.2 137.7 22.3C138.1 22.5 138.6 22.6 139.3 22.8C140.5 23.1 141.4 23.4 142 23.9C142.7 24.4 143 25.1 143 26C143 27 142.6 27.8 141.8 28.4C141 29 140 29.3 138.6 29.3Z" fill="#26324B"/>
</svg>
